<?xml version="1.0" standalone="no"?>
<!DOCTYPE svg PUBLIC "-//W3C//DTD SVG 20010904//EN"
 "http://www.w3.org/TR/2001/REC-SVG-20010904/DTD/svg10.dtd">
<svg version="1.0" xmlns="http://www.w3.org/2000/svg"
 width="82.000000pt" height="82.000000pt" viewBox="0 0 82.000000 82.000000"
 preserveAspectRatio="xMidYMid meet">
<metadata>
Created by potrace 1.11, written by Peter Selinger 2001-2013
</metadata>
<g transform="translate(0.000000,82.000000) scale(0.100000,-0.100000)"
fill="#000000" stroke="none">
<path d="M24 796 c3 -12 6 -96 6 -188 l0 -168 33 0 33 0 0 101 c-1 55 2 105 5
110 3 6 25 -20 49 -58 31 -49 43 -79 44 -108 1 -38 3 -40 36 -43 l35 -3 -2
183 c-1 101 -2 185 -2 188 -1 5 -42 6 -62 1 -3 0 -5 -40 -3 -87 1 -47 1 -84
-1 -82 -1 1 -27 41 -56 88 -50 78 -57 85 -87 86 -29 0 -33 -3 -28 -20z"/>
<path d="M325 804 c-8 -9 -15 -22 -15 -29 0 -15 27 -45 40 -45 13 0 40 30 40
43 -1 33 -42 53 -65 31z"/>
<path d="M320 565 l0 -125 30 0 30 0 0 125 0 125 -30 0 -30 0 0 -125z"/>
<path d="M467 670 c-84 -66 -45 -230 54 -230 56 0 69 8 69 42 0 25 -3 29 -17
23 -49 -21 -86 5 -86 61 0 48 32 78 69 64 33 -13 32 -14 28 16 -1 15 -9 31
-16 35 -23 15 -75 9 -101 -11z"/>
<path d="M660 662 c-34 -35 -47 -90 -31 -141 18 -62 71 -94 135 -82 24 5 30
11 31 35 2 27 1 28 -36 22 -27 -4 -42 -2 -53 10 -32 31 -20 41 44 39 l60 -2 0
38 c0 50 -16 84 -47 98 -40 18 -73 13 -103 -17z m79 -31 c23 -15 6 -39 -23
-34 -29 6 -28 5 -20 27 7 18 22 20 43 7z"/>
<path d="M100 362 c-56 -28 -75 -72 -75 -172 0 -136 39 -184 150 -187 102 -2
105 1 105 107 l0 90 -55 0 c-41 0 -55 -4 -55 -14 0 -10 13 -16 38 -18 l37 -3
1 -55 c0 -30 -3 -60 -8 -67 -15 -19 -113 -11 -137 11 -57 52 -58 219 -1 271
22 20 95 26 143 12 24 -7 28 -5 25 10 -6 34 -112 44 -168 15z"/>
<path d="M344 329 c-10 -17 13 -36 27 -22 12 12 4 33 -11 33 -5 0 -12 -5 -16
-11z"/>
<path d="M697 333 c-4 -3 -7 -21 -7 -39 0 -27 -5 -35 -25 -40 -14 -3 -25 -10
-25 -15 0 -5 11 -9 25 -9 25 0 25 0 25 -93 0 -107 8 -125 63 -134 30 -4 37 -3
37 11 0 9 -8 16 -17 16 -40 1 -47 15 -48 109 l-2 91 39 0 c27 0 38 4 38 15 0
11 -11 15 -39 15 -33 0 -38 3 -38 23 -1 57 -7 69 -26 50z"/>
<path d="M340 146 c0 -118 9 -146 46 -146 17 0 19 27 3 32 -8 3 -12 42 -12
116 0 102 -2 112 -19 112 -16 0 -18 -10 -18 -114z"/>
<path d="M482 250 c-28 -12 -46 -51 -38 -83 6 -25 26 -35 98 -51 36 -8 52 -37
33 -62 -10 -15 -27 -19 -71 -20 -66 -1 -84 -19 -29 -30 83 -15 145 17 145 76
0 35 -26 58 -75 66 -69 11 -88 29 -65 64 7 11 27 15 70 15 39 -1 60 3 60 11 0
23 -83 31 -128 14z"/>
</g>
</svg>
